<svg width="90" height="100" viewBox="0 0 90 100" fill="none" xmlns="http://www.w3.org/2000/svg">
<rect width="90" height="100" rx="20" fill="#3A3A3A"/>
<path d="M41.1472 79.9416L35.4289 77.8672C34.8289 77.6562 34.4914 76.871 34.6602 76.121L47.4561 21.0153C47.6248 20.2652 48.2529 19.8433 48.8528 20.0542L54.5711 22.1286C55.1711 22.3396 55.5086 23.1248 55.3398 23.8748L42.5439 78.9805C42.3658 79.7306 41.7471 80.1642 41.1472 79.9416ZM30.4605 66.7921L34.5383 61.3542C34.9695 60.78 34.9414 59.8658 34.4633 59.3384L25.9702 49.9979L34.4633 40.6574C34.9414 40.13 34.9789 39.2158 34.5383 38.6416L30.4605 33.2037C30.0387 32.6411 29.3262 32.606 28.8669 33.1451L15.3586 48.9666C14.8805 49.5174 14.8805 50.4667 15.3586 51.0175L28.8669 66.8507C29.3262 67.3898 30.0387 67.3664 30.4605 66.7921ZM61.1331 66.8624L74.6414 51.0292C75.1195 50.4784 75.1195 49.5291 74.6414 48.9783L61.1331 33.1333C60.6832 32.606 59.9707 32.6294 59.5395 33.1919L55.4617 38.6299C55.0305 39.2041 55.0586 40.1182 55.5367 40.6456L64.0298 49.9979L55.5367 59.3384C55.0586 59.8658 55.0211 60.78 55.4617 61.3542L59.5395 66.7921C59.9613 67.3664 60.6738 67.3898 61.1331 66.8624Z" fill="#FDFDFD"/>
</svg>
