<svg width="90" height="100" viewBox="0 0 90 100" fill="none" xmlns="http://www.w3.org/2000/svg">
<rect width="90" height="100" rx="20" fill="#3A3A3A"/>
<path d="M32.5025 86.985C39.4011 86.985 45 81.3861 45 74.4875V61.99H32.5025C25.6039 61.99 20.005 67.5889 20.005 74.4875C20.005 81.3861 25.6039 86.985 32.5025 86.985Z" fill="#0ACF83"/>
<path d="M20.005 49.4925C20.005 42.5939 25.6039 36.995 32.5025 36.995H45V61.99H32.5025C25.6039 61.99 20.005 56.3911 20.005 49.4925Z" fill="#A259FF"/>
<path d="M20.0057 24.4975C20.0057 17.5989 25.6046 12 32.5032 12H45.0007V36.995H32.5032C25.6046 36.995 20.0057 31.3961 20.0057 24.4975Z" fill="#F24E1E"/>
<path d="M45 12H57.4975C64.3961 12 69.995 17.5989 69.995 24.4975C69.995 31.3961 64.3961 36.995 57.4975 36.995H45V12Z" fill="#FF7262"/>
<path d="M69.995 49.4925C69.995 56.3911 64.3961 61.99 57.4975 61.99C50.5989 61.99 45 56.3911 45 49.4925C45 42.5939 50.5989 36.995 57.4975 36.995C64.3961 36.995 69.995 42.5939 69.995 49.4925Z" fill="#1ABCFE"/>
</svg>
